<svg width="243" height="63" viewBox="0 0 243 63" fill="none" xmlns="http://www.w3.org/2000/svg">
<path d="M71.6385 47.6354C71.4685 47.9406 71.2058 48.1879 70.8543 48.3733C70.5027 48.5588 70.0739 48.6515 69.5678 48.6515C69.0733 48.6515 68.629 48.5626 68.2388 48.3888C67.8486 48.2149 67.5356 47.9677 67.3 47.6509C67.0682 47.3341 66.9329 46.9709 66.8982 46.5575H68.1538C68.1885 46.8743 68.3238 47.1448 68.5594 47.3727C68.7951 47.6006 69.1119 47.7127 69.5137 47.7127C69.8691 47.7127 70.1473 47.6161 70.3443 47.4229C70.5413 47.2298 70.6379 46.9825 70.6379 46.6812C70.6379 46.4185 70.5645 46.206 70.4216 46.036C70.2786 45.8699 70.0971 45.7346 69.8846 45.6381C69.6721 45.5415 69.3785 45.4333 69.0076 45.3097C68.5556 45.1667 68.1847 45.0199 67.8988 44.877C67.6129 44.734 67.3734 44.5254 67.1725 44.2472C66.9716 43.9729 66.875 43.6136 66.875 43.1655C66.875 42.7753 66.9716 42.4315 67.1648 42.134C67.3579 41.8404 67.6322 41.6086 67.9877 41.4502C68.3431 41.2879 68.7565 41.2068 69.2239 41.2068C69.9657 41.2068 70.5529 41.3845 70.9895 41.7438C71.4261 42.0992 71.6733 42.5667 71.7351 43.1462H70.4679C70.4216 42.8719 70.2902 42.6362 70.0816 42.4392C69.873 42.2422 69.5871 42.1456 69.2201 42.1456C68.8917 42.1456 68.6251 42.2306 68.4281 42.3967C68.2272 42.5667 68.1306 42.8062 68.1306 43.123C68.1306 43.3703 68.2001 43.575 68.3354 43.7373C68.4744 43.8995 68.6444 44.027 68.8569 44.1197C69.0655 44.2125 69.3514 44.3206 69.7184 44.4443C70.1782 44.5872 70.5529 44.734 70.8465 44.8808C71.1402 45.0276 71.3836 45.244 71.5883 45.526C71.7892 45.808 71.8935 46.1789 71.8935 46.6387C71.8974 46.998 71.8085 47.3302 71.6385 47.6354Z" fill="#0069B4"/>
<path d="M78.5076 45.9704H74.142C74.1613 46.5537 74.3235 46.9864 74.6249 47.2685C74.9262 47.5505 75.301 47.6896 75.7491 47.6896C76.1393 47.6896 76.4716 47.5891 76.742 47.3921C77.0125 47.1912 77.1786 46.9285 77.2404 46.6001H78.496C78.4187 46.998 78.2642 47.3534 78.0208 47.6625C77.7813 47.9716 77.4683 48.215 77.082 48.3888C76.6956 48.5627 76.2668 48.6515 75.7955 48.6515C75.2469 48.6515 74.7601 48.5356 74.339 48.3C73.9179 48.0682 73.5856 47.7282 73.3461 47.2916C73.1066 46.8512 72.9868 46.3335 72.9868 45.7347C72.9868 45.1436 73.1066 44.6298 73.3461 44.1893C73.5856 43.7489 73.9179 43.4128 74.339 43.181C74.7601 42.9492 75.2469 42.8294 75.7955 42.8294C76.3518 42.8294 76.8386 42.9453 77.252 43.1733C77.6692 43.4051 77.986 43.718 78.2101 44.1198C78.4342 44.5216 78.5462 44.9697 78.5462 45.4643C78.5501 45.6574 78.5346 45.8274 78.5076 45.9704ZM77.1747 44.5023C77.0356 44.2512 76.8425 44.0657 76.5991 43.946C76.3557 43.8262 76.0891 43.7644 75.7994 43.7644C75.3396 43.7644 74.9533 43.9035 74.6442 44.1855C74.3351 44.4675 74.1651 44.8809 74.1381 45.4334H77.3602C77.3795 45.0625 77.3138 44.7534 77.1747 44.5023Z" fill="#0069B4"/>
<path d="M83.1015 48.5742L81.0617 46.0514V48.5742H79.8872V40.9518H81.0617V45.3174L83.0822 42.8989H84.4923L82.0198 45.7192L84.5542 48.5704H83.1015V48.5742Z" fill="#0069B4"/>
<path d="M89.5995 43.181C90.0399 43.4128 90.3837 43.7528 90.631 44.1893C90.8782 44.6298 91.0019 45.1436 91.0019 45.7347C91.0019 46.3335 90.8782 46.8512 90.631 47.2916C90.3837 47.7321 90.0399 48.0682 89.5995 48.3C89.159 48.5318 88.6645 48.6515 88.1159 48.6515C87.5673 48.6515 87.0728 48.5356 86.6362 48.3C86.1997 48.0682 85.8558 47.7282 85.6047 47.2839C85.3536 46.8396 85.23 46.3258 85.23 45.7347C85.23 45.1436 85.3536 44.6298 85.6047 44.1893C85.8558 43.7489 86.1997 43.4128 86.6362 43.181C87.0728 42.9492 87.5635 42.8294 88.1159 42.8294C88.6645 42.8294 89.159 42.9453 89.5995 43.181ZM87.2814 44.0541C87.0264 44.1932 86.8217 44.4018 86.6671 44.6877C86.5126 44.9736 86.4354 45.3213 86.4354 45.7347C86.4354 46.1519 86.5126 46.5035 86.6671 46.7855C86.8217 47.0676 87.0264 47.2762 87.2814 47.4153C87.5364 47.5543 87.8146 47.62 88.1159 47.62C88.4173 47.62 88.6954 47.5505 88.9504 47.4153C89.2054 47.2762 89.4101 47.0676 89.5647 46.7855C89.7192 46.5035 89.7965 46.1558 89.7965 45.7347C89.7965 45.3213 89.7192 44.9736 89.5647 44.6877C89.4101 44.4018 89.2054 44.1932 88.9504 44.0541C88.6954 43.915 88.4173 43.8494 88.1159 43.8494C87.8146 43.8494 87.5364 43.9189 87.2814 44.0541Z" fill="#0069B4"/>
<path d="M93.5128 40.9556V48.5781H92.3384V40.9556H93.5128Z" fill="#0069B4"/>
<path d="M98.7362 43.2119C99.0994 43.4669 99.3582 43.803 99.5089 44.2203V42.9028H100.683V48.5781H99.5089V47.2607C99.3582 47.678 99.0994 48.0141 98.7362 48.2691C98.3731 48.524 97.9326 48.6515 97.4188 48.6515C96.9243 48.6515 96.4839 48.5356 96.0937 48.3C95.7073 48.0682 95.4021 47.7282 95.1819 47.2916C94.9617 46.8512 94.8535 46.3335 94.8535 45.7347C94.8535 45.1436 94.9617 44.6298 95.1819 44.1893C95.4021 43.7489 95.7073 43.4128 96.0937 43.181C96.48 42.9492 96.9243 42.8294 97.4188 42.8294C97.9326 42.8294 98.3692 42.9569 98.7362 43.2119ZM96.5264 44.3593C96.2134 44.6916 96.0589 45.1513 96.0589 45.7347C96.0589 46.3181 96.2134 46.7778 96.5264 47.1101C96.8393 47.4423 97.2565 47.6084 97.7781 47.6084C98.1065 47.6084 98.404 47.5312 98.6628 47.3766C98.9217 47.2221 99.1303 47.0057 99.2809 46.7237C99.4316 46.4417 99.5089 46.1133 99.5089 45.7347C99.5089 45.3638 99.4316 45.0354 99.2809 44.7495C99.1303 44.4636 98.9255 44.2434 98.6628 44.0889C98.4001 43.9344 98.1065 43.8571 97.7781 43.8571C97.2565 43.861 96.8393 44.0271 96.5264 44.3593Z" fill="#0069B4"/>
<path d="M107.058 43.4475C107.456 43.8725 107.657 44.479 107.657 45.271V48.5781H106.482V45.3946C106.482 44.8847 106.351 44.4945 106.092 44.2163C105.83 43.9381 105.474 43.7991 105.022 43.7991C104.555 43.7991 104.18 43.9497 103.898 44.2472C103.616 44.5447 103.477 44.9851 103.477 45.5608V48.5781H102.302V40.9556H103.477V44.1468C103.627 43.7218 103.882 43.3934 104.238 43.1578C104.593 42.9259 105.007 42.8062 105.474 42.8062C106.131 42.81 106.656 43.0225 107.058 43.4475Z" fill="#0069B4"/>
<path d="M119.386 41.4192V48.578H118.2V43.2118L116.129 48.578H115.098L113.019 43.2118V48.578H111.845V41.4192H113.266L115.635 47.137L117.964 41.4192H119.386Z" fill="#0069B4"/>
<path d="M126.232 45.9704H121.866C121.885 46.5537 122.048 46.9864 122.349 47.2685C122.65 47.5505 123.025 47.6896 123.473 47.6896C123.863 47.6896 124.196 47.5891 124.466 47.3921C124.737 47.1912 124.903 46.9285 124.965 46.6001H126.22C126.143 46.998 125.988 47.3534 125.745 47.6625C125.505 47.9716 125.192 48.215 124.806 48.3888C124.42 48.5627 123.991 48.6515 123.52 48.6515C122.971 48.6515 122.484 48.5356 122.063 48.3C121.642 48.0682 121.31 47.7282 121.07 47.2916C120.831 46.8512 120.711 46.3335 120.711 45.7347C120.711 45.1436 120.831 44.6298 121.07 44.1893C121.31 43.7489 121.642 43.4128 122.063 43.181C122.484 42.9492 122.971 42.8294 123.52 42.8294C124.076 42.8294 124.563 42.9453 124.976 43.1733C125.393 43.4051 125.71 43.718 125.934 44.1198C126.158 44.5216 126.27 44.9697 126.27 45.4643C126.274 45.6574 126.259 45.8274 126.232 45.9704ZM124.899 44.5023C124.76 44.2512 124.567 44.0657 124.323 43.946C124.08 43.8262 123.813 43.7644 123.523 43.7644C123.064 43.7644 122.677 43.9035 122.368 44.1855C122.059 44.4675 121.889 44.8809 121.862 45.4334H125.084C125.104 45.0625 125.038 44.7534 124.899 44.5023Z" fill="#0069B4"/>
<path d="M132.371 43.4474C132.768 43.8724 132.969 44.479 132.969 45.2709V48.578H131.795V45.3946C131.795 44.8846 131.664 44.4944 131.405 44.2162C131.142 43.9381 130.787 43.799 130.335 43.799C129.867 43.799 129.492 43.9497 129.21 44.2472C128.928 44.5446 128.789 44.9851 128.789 45.5607V48.578H127.615V42.9027H128.789V44.1506C128.94 43.7256 129.195 43.3972 129.55 43.1616C129.906 42.9297 130.319 42.81 130.787 42.81C131.443 42.81 131.973 43.0225 132.371 43.4474Z" fill="#0069B4"/>
<path d="M139.777 45.9704H135.411C135.43 46.5537 135.593 46.9864 135.894 47.2685C136.195 47.5505 136.57 47.6896 137.018 47.6896C137.408 47.6896 137.741 47.5891 138.011 47.3921C138.281 47.1912 138.448 46.9285 138.509 46.6001H139.765C139.688 46.998 139.533 47.3534 139.29 47.6625C139.05 47.9716 138.737 48.215 138.351 48.3888C137.965 48.5627 137.536 48.6515 137.065 48.6515C136.516 48.6515 136.029 48.5356 135.608 48.3C135.187 48.0682 134.855 47.7282 134.615 47.2916C134.376 46.8512 134.256 46.3335 134.256 45.7347C134.256 45.1436 134.376 44.6298 134.615 44.1893C134.855 43.7489 135.187 43.4128 135.608 43.181C136.029 42.9492 136.516 42.8294 137.065 42.8294C137.621 42.8294 138.108 42.9453 138.521 43.1733C138.938 43.4051 139.255 43.718 139.479 44.1198C139.703 44.5216 139.815 44.9697 139.815 45.4643C139.815 45.6574 139.804 45.8274 139.777 45.9704ZM138.444 44.5023C138.305 44.2512 138.112 44.0657 137.868 43.946C137.625 43.8262 137.358 43.7644 137.068 43.7644C136.609 43.7644 136.222 43.9035 135.913 44.1855C135.604 44.4675 135.434 44.8809 135.407 45.4334H138.629C138.645 45.0625 138.583 44.7534 138.444 44.5023Z" fill="#0069B4"/>
<path d="M145.915 43.4474C146.313 43.8724 146.514 44.479 146.514 45.2709V48.578H145.34V45.3946C145.34 44.8846 145.208 44.4944 144.95 44.2162C144.687 43.9381 144.331 43.799 143.879 43.799C143.412 43.799 143.037 43.9497 142.755 44.2472C142.473 44.5446 142.334 44.9851 142.334 45.5607V48.578H141.16V42.9027H142.334V44.1506C142.485 43.7256 142.74 43.3972 143.095 43.1616C143.451 42.9259 143.864 42.81 144.331 42.81C144.988 42.81 145.518 43.0225 145.915 43.4474Z" fill="#0069B4"/>
<path d="M151.684 43.2119C152.047 43.4669 152.306 43.803 152.457 44.2203V42.9029H153.631V48.6361C153.631 49.1654 153.523 49.6329 153.307 50.0424C153.09 50.4519 152.781 50.7725 152.376 51.0043C151.97 51.2362 151.491 51.3559 150.934 51.3559C150.139 51.3559 149.493 51.1666 149.003 50.788C148.512 50.4094 148.203 49.8994 148.079 49.2542H149.242C149.339 49.5904 149.524 49.8531 149.799 50.0424C150.073 50.2317 150.424 50.3244 150.849 50.3244C151.317 50.3244 151.699 50.1814 152.005 49.8917C152.306 49.6019 152.457 49.1847 152.457 48.6361V47.2569C152.306 47.6741 152.047 48.0102 151.684 48.2652C151.321 48.5202 150.88 48.6477 150.367 48.6477C149.872 48.6477 149.432 48.5318 149.041 48.2961C148.655 48.0643 148.35 47.7243 148.13 47.2878C147.909 46.8474 147.801 46.3297 147.801 45.7308C147.801 45.1397 147.909 44.6259 148.13 44.1855C148.35 43.7451 148.655 43.409 149.041 43.1772C149.428 42.9454 149.872 42.8256 150.367 42.8256C150.88 42.8295 151.317 42.9569 151.684 43.2119ZM149.474 44.3593C149.161 44.6916 149.007 45.1513 149.007 45.7347C149.007 46.3181 149.161 46.7778 149.474 47.1101C149.787 47.4423 150.204 47.6084 150.726 47.6084C151.054 47.6084 151.352 47.5312 151.611 47.3766C151.869 47.2221 152.078 47.0058 152.229 46.7237C152.379 46.4417 152.457 46.1133 152.457 45.7347C152.457 45.3638 152.379 45.0354 152.229 44.7495C152.078 44.4637 151.873 44.2434 151.611 44.0889C151.348 43.9344 151.054 43.8571 150.726 43.8571C150.204 43.861 149.787 44.0271 149.474 44.3593Z" fill="#0069B4"/>
<path d="M158.839 43.2119C159.202 43.4669 159.461 43.803 159.611 44.2203V42.9028H160.786V48.5781H159.611V47.2607C159.461 47.678 159.202 48.0141 158.839 48.2691C158.476 48.524 158.035 48.6515 157.521 48.6515C157.027 48.6515 156.586 48.5356 156.196 48.3C155.81 48.0682 155.505 47.7282 155.284 47.2916C155.064 46.8512 154.956 46.3335 154.956 45.7347C154.956 45.1436 155.064 44.6298 155.284 44.1893C155.505 43.7489 155.81 43.4128 156.196 43.181C156.583 42.9492 157.027 42.8294 157.521 42.8294C158.035 42.8294 158.476 42.9569 158.839 43.2119ZM156.629 44.3593C156.316 44.6916 156.161 45.1513 156.161 45.7347C156.161 46.3181 156.316 46.7778 156.629 47.1101C156.942 47.4423 157.359 47.6084 157.881 47.6084C158.209 47.6084 158.506 47.5312 158.765 47.3766C159.024 47.2221 159.233 47.0057 159.383 46.7237C159.534 46.4417 159.611 46.1133 159.611 45.7347C159.611 45.3638 159.534 45.0354 159.383 44.7495C159.233 44.4636 159.028 44.2434 158.765 44.0889C158.503 43.9344 158.209 43.8571 157.881 43.8571C157.359 43.861 156.942 44.0271 156.629 44.3593Z" fill="#0069B4"/>
<path d="M167.161 43.4475C167.559 43.8725 167.759 44.479 167.759 45.271V48.5781H166.585V45.3946C166.585 44.8847 166.454 44.4945 166.195 44.2163C165.932 43.9381 165.577 43.7991 165.125 43.7991C164.657 43.7991 164.282 43.9497 164 44.2472C163.718 44.5447 163.579 44.9851 163.579 45.5608V48.5781H162.405V40.9556H163.579V44.1468C163.73 43.7218 163.985 43.3934 164.34 43.1578C164.696 42.9221 165.109 42.8062 165.577 42.8062C166.233 42.81 166.763 43.0225 167.161 43.4475Z" fill="#0069B4"/>
<path d="M173.126 45.754V48.5742H171.951V41.3034H174.424C175.262 41.3034 175.892 41.5043 176.313 41.9022C176.734 42.3001 176.947 42.8449 176.947 43.5403C176.947 44.2279 176.73 44.7688 176.297 45.1629C175.865 45.5569 175.239 45.754 174.424 45.754H173.126ZM175.749 43.5403C175.749 43.1269 175.633 42.814 175.405 42.5976C175.173 42.3813 174.806 42.2731 174.296 42.2731H173.122V44.7959H174.296C175.266 44.7959 175.749 44.3786 175.749 43.5403Z" fill="#0069B4"/>
<path d="M183.414 45.9704H179.048C179.068 46.5537 179.23 46.9864 179.531 47.2685C179.832 47.5505 180.207 47.6896 180.655 47.6896C181.046 47.6896 181.378 47.5891 181.648 47.3921C181.919 47.1912 182.085 46.9285 182.147 46.6001H183.402C183.325 46.998 183.17 47.3534 182.927 47.6625C182.688 47.9716 182.375 48.215 181.988 48.3888C181.602 48.5627 181.173 48.6515 180.702 48.6515C180.153 48.6515 179.666 48.5356 179.245 48.3C178.824 48.0682 178.492 47.7282 178.252 47.2916C178.013 46.8512 177.893 46.3335 177.893 45.7347C177.893 45.1436 178.013 44.6298 178.252 44.1893C178.492 43.7489 178.824 43.4128 179.245 43.181C179.666 42.9492 180.153 42.8294 180.702 42.8294C181.258 42.8294 181.745 42.9453 182.158 43.1733C182.575 43.4051 182.892 43.718 183.116 44.1198C183.34 44.5216 183.452 44.9697 183.452 45.4643C183.452 45.6574 183.441 45.8274 183.414 45.9704ZM182.081 44.5023C181.942 44.2512 181.749 44.0657 181.505 43.946C181.262 43.8262 180.995 43.7644 180.706 43.7644C180.246 43.7644 179.86 43.9035 179.55 44.1855C179.241 44.4675 179.071 44.8809 179.044 45.4334H182.266C182.282 45.0625 182.22 44.7534 182.081 44.5023Z" fill="#0069B4"/>
<path d="M186.79 43.1345C187.146 42.9182 187.559 42.81 188.027 42.81V44.0888H187.675C187.161 44.0888 186.748 44.2124 186.435 44.4635C186.122 44.7146 185.967 45.128 185.967 45.7037V48.578H184.793V42.9027H185.967V44.0154C186.161 43.6445 186.435 43.3509 186.79 43.1345Z" fill="#0069B4"/>
<path d="M191.96 47.5582V48.5782H191.237C190.634 48.5782 190.175 48.4314 189.862 48.1416C189.549 47.848 189.394 47.3651 189.394 46.6851V43.9035H188.579V42.9029H189.394V41.4928H190.58V42.9029H191.952V43.9035H190.58V46.7044C190.58 47.029 190.642 47.2492 190.762 47.3728C190.882 47.4964 191.094 47.5582 191.396 47.5582H191.96Z" fill="#0069B4"/>
<path d="M196.862 43.2119C197.225 43.4669 197.484 43.803 197.635 44.2203V42.9028H198.809V48.5781H197.635V47.2607C197.484 47.678 197.225 48.0141 196.862 48.2691C196.499 48.524 196.059 48.6515 195.545 48.6515C195.05 48.6515 194.61 48.5356 194.22 48.3C193.833 48.0682 193.528 47.7282 193.308 47.2916C193.088 46.8512 192.979 46.3335 192.979 45.7347C192.979 45.1436 193.088 44.6298 193.308 44.1893C193.528 43.7489 193.829 43.4128 194.22 43.181C194.606 42.9492 195.05 42.8294 195.545 42.8294C196.059 42.8294 196.499 42.9569 196.862 43.2119ZM194.652 44.3593C194.339 44.6916 194.185 45.1513 194.185 45.7347C194.185 46.3181 194.339 46.7778 194.652 47.1101C194.965 47.4423 195.383 47.6084 195.904 47.6084C196.232 47.6084 196.53 47.5312 196.789 47.3766C197.048 47.2221 197.256 47.0057 197.407 46.7237C197.558 46.4417 197.635 46.1133 197.635 45.7347C197.635 45.3638 197.558 45.0354 197.407 44.7495C197.256 44.4636 197.051 44.2434 196.789 44.0889C196.526 43.9344 196.232 43.8571 195.904 43.8571C195.383 43.861 194.965 44.0271 194.652 44.3593Z" fill="#0069B4"/>
<path d="M209.136 43.4475C209.538 43.8724 209.738 44.479 209.738 45.271V48.578H208.564V45.3946C208.564 44.9001 208.44 44.5176 208.193 44.2472C207.946 43.9768 207.606 43.8415 207.173 43.8415C206.713 43.8415 206.346 43.9883 206.076 44.2781C205.806 44.5717 205.67 44.9967 205.67 45.5607V48.578H204.496V45.3946C204.496 44.9001 204.372 44.5176 204.125 44.2472C203.878 43.9768 203.538 43.8415 203.105 43.8415C202.645 43.8415 202.278 43.9883 202.008 44.2781C201.737 44.5717 201.602 44.9967 201.602 45.5607V48.578H200.428V42.9027H201.602V44.0888C201.745 43.6754 201.985 43.3625 202.325 43.1423C202.661 42.9221 203.055 42.8139 203.511 42.8139C203.986 42.8139 204.395 42.9298 204.743 43.1654C205.091 43.3972 205.342 43.7372 205.5 44.1738C205.666 43.7488 205.929 43.4166 206.292 43.1732C206.655 42.9336 207.069 42.8139 207.529 42.8139C208.193 42.81 208.734 43.0225 209.136 43.4475Z" fill="#0069B4"/>
<path d="M214.908 43.2119C215.271 43.4669 215.53 43.803 215.68 44.2203V42.9028H216.855V48.5781H215.68V47.2607C215.53 47.678 215.271 48.0141 214.908 48.2691C214.544 48.524 214.104 48.6515 213.59 48.6515C213.096 48.6515 212.655 48.5356 212.265 48.3C211.879 48.0682 211.573 47.7282 211.353 47.2916C211.133 46.8512 211.025 46.3335 211.025 45.7347C211.025 45.1436 211.133 44.6298 211.353 44.1893C211.573 43.7489 211.875 43.4128 212.265 43.181C212.651 42.9492 213.096 42.8294 213.59 42.8294C214.104 42.8294 214.541 42.9569 214.908 43.2119ZM212.698 44.3593C212.385 44.6916 212.23 45.1513 212.23 45.7347C212.23 46.3181 212.385 46.7778 212.698 47.1101C213.011 47.4423 213.428 47.6084 213.949 47.6084C214.278 47.6084 214.575 47.5312 214.834 47.3766C215.093 47.2221 215.302 47.0057 215.452 46.7237C215.603 46.4417 215.68 46.1133 215.68 45.7347C215.68 45.3638 215.603 45.0354 215.452 44.7495C215.302 44.4636 215.097 44.2434 214.834 44.0889C214.571 43.9344 214.278 43.8571 213.949 43.8571C213.428 43.861 213.011 44.0271 212.698 44.3593Z" fill="#0069B4"/>
<path d="M79.8908 25.7493C79.3074 25.0732 78.6313 24.5942 77.8432 24.2928C77.0551 23.9992 76.0429 23.7017 74.8143 23.4158C73.6746 23.1608 72.8479 22.9136 72.3109 22.6663C71.7854 22.4113 71.5227 22.0366 71.5227 21.5344C71.5227 21.0978 71.6657 20.754 71.9516 20.5144C72.2452 20.2749 72.6701 20.1551 73.2265 20.1551C73.9373 20.1551 74.5246 20.3367 74.9959 20.7115C75.4672 21.0862 75.7686 21.6039 75.9038 22.2568H80.5166C80.2153 20.584 79.4504 19.2357 78.2295 18.2157C77.001 17.1958 75.3784 16.6858 73.3385 16.6858C71.3373 16.6858 69.7919 17.1301 68.6947 18.0341C67.6014 18.9266 67.0528 20.0895 67.0528 21.5305C67.0528 22.647 67.331 23.5317 67.8912 24.1769C68.4475 24.8221 69.112 25.2857 69.8847 25.5716C70.6496 25.8575 71.6309 26.1279 72.8247 26.3829C74.0107 26.6456 74.8723 26.9006 75.4054 27.1478C75.9308 27.3874 76.1935 27.7853 76.1935 28.3416C76.1935 28.7627 76.0506 29.1066 75.7647 29.3616C75.4788 29.6243 75.0538 29.7518 74.4975 29.7518C73.6862 29.7518 73.0333 29.5702 72.5233 29.2032C72.0134 28.8439 71.7198 28.3107 71.6386 27.6192H66.8828C67.1687 29.4118 67.9646 30.7833 69.282 31.7453C70.5878 32.7111 72.3263 33.1863 74.5014 33.1863C75.784 33.1863 76.9005 32.9854 77.8471 32.5797C78.7859 32.1741 79.5044 31.6139 80.0067 30.9069C80.5089 30.196 80.7562 29.377 80.7562 28.4537C80.7523 27.3256 80.4664 26.4177 79.8908 25.7493Z" fill="#F7942D"/>
<path d="M107.869 18.5519C106.737 17.3311 105.177 16.7207 103.191 16.7207C102.02 16.7207 100.95 17.0143 99.9805 17.6131C99.0069 18.2119 98.2419 19.0078 97.6856 20.0123C97.2065 18.9537 96.4918 18.1385 95.5492 17.5745C94.6104 17.0104 93.5248 16.7207 92.2885 16.7207C91.1179 16.7207 90.0902 16.9834 89.221 17.5011C88.344 18.0188 87.6911 18.7296 87.27 19.6375V16.8984H82.3364V32.9932H87.27V24.4474C87.27 23.3309 87.5636 22.481 88.1392 21.8821C88.711 21.2833 89.4953 20.9897 90.4727 20.9897C91.4115 20.9897 92.1533 21.2679 92.6941 21.8435C93.2273 22.4076 93.4977 23.1995 93.4977 24.2195V32.9932H98.4312V24.4474C98.4312 23.3541 98.7171 22.5041 99.285 21.8976C99.8491 21.291 100.622 20.9897 101.603 20.9897C102.55 20.9897 103.291 21.2679 103.844 21.8435C104.392 22.4076 104.663 23.1995 104.663 24.2195V32.9932H109.562V23.6438C109.565 21.4688 109.001 19.7727 107.869 18.5519Z" fill="#F7942D"/>
<path d="M122.952 16.8945V19.8036C122.531 18.8493 121.878 18.0844 120.993 17.5242C120.108 16.964 119.05 16.6858 117.821 16.6858C116.492 16.6858 115.302 17.0219 114.259 17.6826C113.208 18.3509 112.378 19.3013 111.775 20.5415C111.169 21.7778 110.867 23.242 110.867 24.938C110.867 26.6108 111.169 28.0712 111.775 29.3191C112.382 30.5708 113.208 31.525 114.259 32.1857C115.302 32.8463 116.488 33.1824 117.821 33.1824C119.05 33.1824 120.108 32.9043 120.993 32.3441C121.878 31.7878 122.531 31.0305 122.952 30.0647V32.9815H127.851V16.8945H122.952ZM121.955 27.7969C121.294 28.5077 120.441 28.8632 119.405 28.8632C118.347 28.8632 117.493 28.5116 116.855 27.8278C116.21 27.1363 115.882 26.1704 115.882 24.9419C115.882 23.7056 116.21 22.7436 116.855 22.0559C117.493 21.3644 118.347 21.0128 119.405 21.0128C120.441 21.0128 121.294 21.3644 121.955 22.0636C122.623 22.7745 122.952 23.7288 122.952 24.9419C122.952 26.1318 122.623 27.086 121.955 27.7969Z" fill="#F7942D"/>
<path d="M140.178 17.0374V21.1905H139.294C137.485 21.1905 135.94 22.3225 135.326 23.9142C135.295 24.003 135.264 24.088 135.237 24.1769C135.206 24.2657 135.183 24.3507 135.164 24.4396C135.156 24.486 135.14 24.5362 135.133 24.5825C135.117 24.6637 135.102 24.7487 135.094 24.8298C135.086 24.8839 135.079 24.9496 135.071 25.0036C135.063 25.108 135.055 25.22 135.048 25.3398C135.04 25.4441 135.04 25.5484 135.04 25.6604V32.9892H130.106V16.8944H135.04V19.9233C135.16 18.2968 136.539 17.0297 138.196 17.0297H138.617L140.178 17.0374Z" fill="#F7942D"/>
<path d="M149.057 28.7435C148.442 28.7435 148.006 28.6237 147.743 28.3687C147.488 28.1215 147.353 27.6849 147.353 27.0474V21.0476H150.587V16.8945H147.353V12.9423H142.419V26.9586C142.419 29.1105 142.945 30.6558 143.996 31.5869C145.039 32.518 146.507 32.9893 148.392 32.9893H150.606V28.7435H149.057Z" fill="#F7942D"/>
<path d="M176.846 28.3688C176.367 28.759 175.76 28.9522 175.03 28.9522C174.168 28.9522 173.454 28.6084 172.893 27.9246C172.337 27.2485 172.055 26.2517 172.055 24.9459C172.055 23.6401 172.333 22.6433 172.893 21.9595C173.45 21.2757 174.168 20.9319 175.03 20.9319C175.764 20.9319 176.367 21.1328 176.846 21.5152C177.325 21.8977 177.642 22.4386 177.8 23.134H183.019C182.652 21.1328 181.768 19.5565 180.365 18.4168C178.963 17.2694 177.217 16.6976 175.146 16.6976C173.57 16.6976 172.159 17.0337 170.931 17.6944C169.702 18.3627 168.748 19.3131 168.064 20.5532C167.38 21.7895 167.037 23.2537 167.037 24.9498C167.037 26.6226 167.388 28.083 168.08 29.3308C168.771 30.5826 169.729 31.5368 170.946 32.1974C172.167 32.8581 173.57 33.1942 175.146 33.1942C177.217 33.1942 178.963 32.6186 180.365 31.475C181.768 30.3353 182.652 28.7668 183.019 26.7655H177.8C177.645 27.4532 177.325 27.9864 176.846 28.3688Z" fill="#0069B4"/>
<path d="M199.037 18.5674C197.955 17.3311 196.487 16.7207 194.648 16.7207C193.412 16.7207 192.338 16.9989 191.43 17.5591C190.515 18.1154 189.827 18.8726 189.367 19.8385V11.6481H184.434V32.9932H189.367V24.4475C189.367 23.2769 189.661 22.369 190.244 21.7392C190.835 21.1018 191.631 20.785 192.628 20.785C193.567 20.785 194.324 21.0863 194.892 21.6929C195.456 22.2994 195.746 23.1417 195.746 24.2195V32.9932H200.679V23.6439C200.671 21.4843 200.13 19.796 199.037 18.5674Z" fill="#0069B4"/>
<path d="M217.566 20.553C216.84 19.309 215.854 18.3548 214.595 17.6864C213.335 17.0258 211.902 16.6897 210.307 16.6897C208.715 16.6897 207.278 17.0258 206.011 17.6864C204.743 18.3548 203.747 19.3129 203.024 20.553C202.306 21.8048 201.942 23.269 201.942 24.9418C201.942 26.6147 202.309 28.075 203.024 29.3229C203.75 30.5746 204.743 31.5289 206.011 32.1895C207.278 32.8502 208.711 33.1863 210.307 33.1863C211.898 33.1863 213.335 32.8502 214.595 32.1895C215.854 31.5289 216.843 30.5708 217.566 29.3229C218.284 28.0712 218.64 26.6147 218.64 24.9418C218.64 23.269 218.281 21.8048 217.566 20.553ZM212.671 27.8819C212.034 28.5502 211.245 28.8863 210.303 28.8863C209.364 28.8863 208.564 28.5502 207.919 27.8819C207.282 27.2058 206.953 26.2245 206.953 24.9418C206.953 23.6515 207.282 22.6624 207.919 21.9864C208.564 21.3025 209.36 20.9587 210.303 20.9587C211.242 20.9587 212.034 21.3025 212.671 21.9864C213.308 22.6624 213.618 23.6515 213.618 24.9418C213.621 26.2245 213.308 27.2058 212.671 27.8819Z" fill="#0069B4"/>
<path d="M234.839 20.553C234.113 19.309 233.127 18.3548 231.868 17.6864C230.609 17.0258 229.183 16.6897 227.58 16.6897C225.988 16.6897 224.551 17.0258 223.284 17.6864C222.016 18.3548 221.02 19.3129 220.297 20.553C219.579 21.8048 219.223 23.269 219.223 24.9418C219.223 26.6147 219.582 28.075 220.297 29.3229C221.023 30.5746 222.02 31.5289 223.284 32.1895C224.551 32.8502 225.984 33.1863 227.58 33.1863C229.183 33.1863 230.609 32.8502 231.868 32.1895C233.127 31.5289 234.116 30.5708 234.839 29.3229C235.557 28.0712 235.913 26.6147 235.913 24.9418C235.913 23.269 235.557 21.8048 234.839 20.553ZM229.948 27.8819C229.31 28.5502 228.522 28.8863 227.58 28.8863C226.641 28.8863 225.841 28.5502 225.204 27.8819C224.558 27.2058 224.23 26.2245 224.23 24.9418C224.23 23.6515 224.558 22.6624 225.204 21.9864C225.841 21.3025 226.637 20.9587 227.58 20.9587C228.518 20.9587 229.31 21.3025 229.948 21.9864C230.585 22.6624 230.902 23.6515 230.902 24.9418C230.902 26.2245 230.585 27.2058 229.948 27.8819Z" fill="#0069B4"/>
<path d="M237.334 11.6443V32.9894H242.268V11.6443H237.334Z" fill="#0069B4"/>
<path d="M24.0534 14.2983C24.0572 14.3177 24.0611 14.337 24.0611 14.3602C24.092 14.6576 24.1074 14.959 24.1074 15.2642C24.1074 15.268 24.1074 15.2758 24.1074 15.2796C24.1152 17.0413 25.5408 18.4746 27.314 18.4746C29.0835 18.4746 30.5206 17.0336 30.5206 15.268C30.5206 6.8459 23.6747 0 15.2526 0C15.2371 0 15.2255 0.00386346 15.2101 0.00386346H3.2066C1.43331 0.00386346 0 1.44104 0 3.21046V15.2449C0 15.2526 0 15.2603 0 15.2719C0 23.6863 6.84589 30.5322 15.2603 30.5322H27.3218C27.9979 30.5322 28.6199 30.3197 29.1376 29.9643C29.3153 29.8407 29.4775 29.6977 29.6282 29.5432C30.1807 28.9676 30.5284 28.1872 30.5284 27.3256C30.5284 26.6611 30.3275 26.0469 29.9798 25.533C29.6243 25.0037 29.1144 24.5942 28.5156 24.3547C28.1447 24.204 27.7429 24.119 27.3218 24.119H15.2603C14.6499 24.119 14.0588 24.0572 13.4832 23.9413C9.45367 23.103 6.41706 19.5332 6.4132 15.2642C6.4132 10.3847 10.3732 6.42092 15.2449 6.4132H15.2603C19.8152 6.4132 23.5743 9.87091 24.0534 14.2983Z" fill="#0069B4"/>
<path d="M12.7915 12.2663C12.6949 12.3436 12.6022 12.4286 12.5172 12.5174C11.814 13.2206 11.3813 14.1903 11.3813 15.2643C11.3813 17.4085 13.1199 19.147 15.264 19.147C16.4694 19.147 17.5473 18.5984 18.262 17.733C18.8145 17.0607 19.1467 16.2031 19.1467 15.2643C19.1467 13.1201 17.4082 11.3816 15.264 11.3816C14.3252 11.3816 13.4637 11.7138 12.7915 12.2663Z" fill="#F7942D"/>
<path d="M48.6978 24.0534C48.6784 24.0572 48.6591 24.0611 48.6359 24.0611C48.3385 24.092 48.0371 24.1074 47.7319 24.1074C47.728 24.1074 47.7203 24.1074 47.7165 24.1074C45.9548 24.1152 44.5215 25.5407 44.5215 27.314C44.5215 29.0835 45.9625 30.5206 47.728 30.5206C56.1502 30.5206 62.9961 23.6747 62.9961 15.2526C62.9961 15.2371 62.9922 15.2255 62.9922 15.2101V3.2066C62.9922 1.43331 61.5551 0 59.7856 0H47.7512C47.7435 0 47.7358 0 47.7242 0C39.3098 0 32.4639 6.84589 32.4639 15.2603V27.3218C32.4639 27.9979 32.6764 28.6199 33.0318 29.1375C33.1554 29.3153 33.2984 29.4775 33.4529 29.6282C34.0285 30.1807 34.8089 30.5284 35.6705 30.5284C36.335 30.5284 36.9492 30.3275 37.4631 29.9798C37.9924 29.6243 38.4019 29.1144 38.6414 28.5155C38.7921 28.1447 38.8771 27.7429 38.8771 27.3218V15.2565C38.8771 14.646 38.9389 14.0549 39.0548 13.4793C39.8815 9.45367 43.4513 6.4132 47.7203 6.4132C52.5998 6.4132 56.5636 10.3732 56.5713 15.2449V15.2603C56.579 19.8152 53.1213 23.5704 48.6978 24.0534Z" fill="#F7942D"/>
<path d="M50.7298 12.7917C50.6525 12.6951 50.5675 12.6024 50.4787 12.5174C49.7755 11.8143 48.8058 11.3816 47.7318 11.3816C45.5876 11.3816 43.8491 13.1201 43.8491 15.2643C43.8491 16.4697 44.3977 17.5475 45.2631 18.2623C45.9353 18.8147 46.793 19.147 47.7318 19.147C49.876 19.147 51.6145 17.4085 51.6145 15.2643C51.6145 14.3216 51.2822 13.4639 50.7298 12.7917Z" fill="#0069B4"/>
<path d="M38.939 48.694C38.9351 48.6747 38.9312 48.6554 38.9312 48.6322C38.9003 48.3347 38.8849 48.0333 38.8849 47.7281C38.8849 47.7243 38.8849 47.7166 38.8849 47.7127C38.8771 45.951 37.4516 44.5177 35.6783 44.5177C33.9089 44.5177 32.4717 45.9587 32.4717 47.7243C32.4717 56.1464 39.3176 62.9923 47.7397 62.9923C47.7552 62.9923 47.7668 62.9885 47.7822 62.9885H59.7934C61.5667 62.9885 63 61.5513 63 59.7819V47.7475C63 47.7397 63 47.732 63 47.7204C63 39.306 56.1541 32.4601 47.7397 32.4601H35.6783C35.0022 32.4601 34.3802 32.6726 33.8625 33.028C33.6848 33.1516 33.5225 33.2946 33.3718 33.4491C32.8194 34.0248 32.4717 34.8052 32.4717 35.6667C32.4717 36.3312 32.6726 36.9455 33.0203 37.4593C33.3757 37.9886 33.8857 38.3981 34.4845 38.6376C34.8554 38.7883 35.2572 38.8733 35.6783 38.8733H47.7397C48.3501 38.8733 48.9412 38.9351 49.5169 39.051C53.5425 39.8778 56.583 43.4475 56.583 47.7166C56.583 52.596 52.623 56.5598 47.7513 56.5675H47.7359C43.1771 56.5791 39.4219 53.1214 38.939 48.694Z" fill="#0069B4"/>
<path d="M50.2009 50.726C50.2975 50.6487 50.3903 50.5637 50.4753 50.4748C51.1784 49.7717 51.6111 48.802 51.6111 47.728C51.6111 45.5838 49.8726 43.8453 47.7284 43.8453C46.523 43.8453 45.4451 44.3939 44.7304 45.2593C44.178 45.9315 43.8457 46.7892 43.8457 47.728C43.8457 49.8722 45.5842 51.6107 47.7284 51.6107C48.6711 51.6145 49.5287 51.2823 50.2009 50.726Z" fill="#F7942D"/>
<path d="M14.2983 38.9389C14.3177 38.9351 14.337 38.9312 14.3602 38.9312C14.6576 38.9003 14.959 38.8848 15.2642 38.8848C15.268 38.8848 15.2758 38.8848 15.2796 38.8848C17.0413 38.8771 18.4746 37.4515 18.4746 35.6782C18.4746 33.9088 17.0336 32.4716 15.268 32.4716C6.84589 32.4716 0 39.3175 0 47.7397C0 47.7551 0.00386346 47.7667 0.00386346 47.7822V59.7934C0.00386346 61.5667 1.44104 63 3.21046 63H15.2449C15.2526 63 15.2603 63 15.2719 63C23.6863 63 30.5322 56.1541 30.5322 47.7397V35.6782C30.5322 35.0021 30.3197 34.3801 29.9643 33.8624C29.8407 33.6847 29.6977 33.5225 29.5432 33.3718C28.9676 32.8193 28.1872 32.4716 27.3256 32.4716C26.6611 32.4716 26.0469 32.6725 25.533 33.0202C25.0037 33.3757 24.5942 33.8856 24.3547 34.4845C24.204 34.8553 24.119 35.2571 24.119 35.6782V47.7397C24.119 48.3501 24.0572 48.9412 23.9413 49.5168C23.1146 53.5425 19.5448 56.5829 15.2758 56.5829C10.3963 56.5829 6.43251 52.623 6.42479 47.7513V47.7358C6.4132 43.1809 9.87092 39.4218 14.2983 38.9389Z" fill="#F7942D"/>
<path d="M12.2661 50.2006C12.3433 50.2971 12.4283 50.3899 12.5172 50.4748C13.2203 51.178 14.19 51.6107 15.264 51.6107C17.4082 51.6107 19.1467 49.8722 19.1467 47.728C19.1467 46.5226 18.5981 45.4447 17.7327 44.73C17.0605 44.1776 16.2028 43.8453 15.264 43.8453C13.1199 43.8453 11.3813 45.5838 11.3813 47.728C11.3813 48.6707 11.7136 49.5322 12.2661 50.2006Z" fill="#0069B4"/>
<path d="M165.429 25.7493C164.846 25.0732 164.17 24.5942 163.382 24.2928C162.594 23.9992 161.581 23.7017 160.353 23.4158C159.213 23.1608 158.386 22.9136 157.857 22.6663C157.324 22.4113 157.061 22.0366 157.061 21.5344C157.061 21.0978 157.204 20.754 157.49 20.5144C157.776 20.2749 158.201 20.1551 158.765 20.1551C159.476 20.1551 160.063 20.3367 160.534 20.7115C161.006 21.0862 161.307 21.6039 161.442 22.2568H166.055C165.754 20.584 164.989 19.2357 163.768 18.2157C162.54 17.1958 160.917 16.6858 158.877 16.6858C156.876 16.6858 155.331 17.1301 154.233 18.0341C153.14 18.9266 152.591 20.0895 152.591 21.5305C152.591 22.647 152.87 23.5317 153.43 24.1769C153.986 24.8221 154.651 25.2857 155.423 25.5716C156.188 25.8575 157.169 26.1279 158.363 26.3829C159.549 26.6456 160.411 26.9006 160.944 27.1478C161.469 27.3874 161.732 27.7853 161.732 28.3416C161.732 28.7627 161.589 29.1066 161.303 29.3616C161.017 29.6243 160.592 29.7518 160.036 29.7518C159.225 29.7518 158.572 29.5702 158.062 29.2032C157.552 28.8439 157.258 28.3107 157.177 27.6192H152.421C152.707 29.4118 153.503 30.7833 154.821 31.7453C156.126 32.7111 157.865 33.1863 160.04 33.1863C161.323 33.1863 162.439 32.9854 163.386 32.5797C164.324 32.1741 165.043 31.6139 165.545 30.9069C166.047 30.196 166.295 29.377 166.295 28.4537C166.291 27.3256 166.001 26.4177 165.429 25.7493Z" fill="#0069B4"/>
</svg>
