<svg width="164" height="164" viewBox="0 0 164 164" fill="none" xmlns="http://www.w3.org/2000/svg">
<path d="M62.3601 37.12C62.3701 37.17 62.3801 37.22 62.3801 37.28C62.4601 38.05 62.5001 38.83 62.5001 39.62C62.5001 39.63 62.5001 39.65 62.5001 39.66C62.5201 44.22 66.2101 47.93 70.8001 47.93C75.3801 47.93 79.1001 44.2 79.1001 39.63C79.1001 17.83 61.3801 0.109985 39.5801 0.109985C39.5401 0.109985 39.5101 0.119986 39.4701 0.119986H8.4001C3.8101 0.119986 0.100098 3.83998 0.100098 8.41998V39.57C0.100098 39.59 0.100098 39.61 0.100098 39.64C0.100098 61.42 17.8201 79.14 39.6001 79.14H70.8201C72.5701 79.14 74.1801 78.59 75.5201 77.67C75.9801 77.35 76.4001 76.98 76.7901 76.58C78.2201 75.09 79.1201 73.07 79.1201 70.84C79.1201 69.12 78.6001 67.53 77.7001 66.2C76.7801 64.83 75.4601 63.77 73.9101 63.15C72.9501 62.76 71.9101 62.54 70.8201 62.54H39.6001C38.0201 62.54 36.4901 62.38 35.0001 62.08C24.5701 59.91 16.7101 50.67 16.7001 39.62C16.7001 26.99 26.9501 16.73 39.5601 16.71H39.6001C51.3901 16.71 61.1201 25.66 62.3601 37.12Z" fill="#0069B4"/>
<path d="M33.2101 31.8599C32.9601 32.0599 32.7201 32.2799 32.5001 32.5099C30.6801 34.3299 29.5601 36.8399 29.5601 39.6199C29.5601 45.1699 34.0601 49.6699 39.6101 49.6699C42.7301 49.6699 45.5201 48.2499 47.3701 46.0099C48.8001 44.2699 49.6601 42.0499 49.6601 39.6199C49.6601 34.0699 45.1601 29.5699 39.6101 29.5699C37.1801 29.5699 34.9501 30.4299 33.2101 31.8599Z" fill="#F7942D"/>
<path d="M126.15 62.37C126.1 62.38 126.05 62.39 125.99 62.39C125.22 62.47 124.44 62.51 123.65 62.51C123.64 62.51 123.62 62.51 123.61 62.51C119.05 62.53 115.34 66.22 115.34 70.81C115.34 75.39 119.07 79.11 123.64 79.11C145.44 79.11 163.16 61.39 163.16 39.59C163.16 39.55 163.15 39.52 163.15 39.48V8.40998C163.15 3.81998 159.43 0.109985 154.85 0.109985H123.7C123.68 0.109985 123.66 0.109985 123.63 0.109985C101.85 0.109985 84.1301 17.83 84.1301 39.61V70.83C84.1301 72.58 84.6801 74.19 85.6001 75.53C85.9201 75.99 86.2901 76.41 86.6901 76.8C88.1801 78.23 90.2001 79.13 92.4301 79.13C94.1501 79.13 95.7401 78.61 97.0701 77.71C98.4401 76.79 99.5001 75.47 100.12 73.92C100.51 72.96 100.73 71.92 100.73 70.83V39.6C100.73 38.02 100.89 36.49 101.19 35C103.33 24.58 112.57 16.71 123.62 16.71C136.25 16.71 146.51 26.96 146.53 39.57V39.61C146.55 51.4 137.6 61.12 126.15 62.37Z" fill="#F7942D"/>
<path d="M131.41 33.2199C131.21 32.9699 130.99 32.7299 130.76 32.5099C128.94 30.6899 126.43 29.5699 123.65 29.5699C118.1 29.5699 113.6 34.0699 113.6 39.6199C113.6 42.7399 115.02 45.5299 117.26 47.3799C119 48.8099 121.22 49.6699 123.65 49.6699C129.2 49.6699 133.7 45.1699 133.7 39.6199C133.7 37.1799 132.84 34.9599 131.41 33.2199Z" fill="#0069B4"/>
<path d="M100.89 126.15C100.88 126.1 100.87 126.05 100.87 125.99C100.79 125.22 100.75 124.44 100.75 123.65C100.75 123.64 100.75 123.62 100.75 123.61C100.73 119.05 97.0401 115.34 92.4501 115.34C87.8701 115.34 84.1501 119.07 84.1501 123.64C84.1501 145.44 101.87 163.16 123.67 163.16C123.71 163.16 123.74 163.15 123.78 163.15H154.87C159.46 163.15 163.17 159.43 163.17 154.85V123.7C163.17 123.68 163.17 123.66 163.17 123.63C163.17 101.85 145.45 84.13 123.67 84.13H92.4501C90.7001 84.13 89.0901 84.68 87.7501 85.6C87.2901 85.92 86.8701 86.29 86.4801 86.69C85.0501 88.18 84.1501 90.2 84.1501 92.43C84.1501 94.15 84.6701 95.74 85.5701 97.07C86.4901 98.44 87.8101 99.5 89.3601 100.12C90.3201 100.51 91.3601 100.73 92.4501 100.73H123.67C125.25 100.73 126.78 100.89 128.27 101.19C138.69 103.33 146.56 112.57 146.56 123.62C146.56 136.25 136.31 146.51 123.7 146.53H123.66C111.86 146.56 102.14 137.61 100.89 126.15Z" fill="#0069B4"/>
<path d="M130.04 131.41C130.29 131.21 130.53 130.99 130.75 130.76C132.57 128.94 133.69 126.43 133.69 123.65C133.69 118.1 129.19 113.6 123.64 113.6C120.52 113.6 117.73 115.02 115.88 117.26C114.45 119 113.59 121.22 113.59 123.65C113.59 129.2 118.09 133.7 123.64 133.7C126.08 133.71 128.3 132.85 130.04 131.41Z" fill="#F7942D"/>
<path d="M37.1101 100.9C37.1601 100.89 37.2101 100.88 37.2701 100.88C38.0401 100.8 38.8201 100.76 39.6101 100.76C39.6201 100.76 39.6401 100.76 39.6501 100.76C44.2101 100.74 47.9201 97.05 47.9201 92.46C47.9201 87.88 44.1901 84.16 39.6201 84.16C17.8201 84.16 0.100098 101.88 0.100098 123.68C0.100098 123.72 0.110098 123.75 0.110098 123.79V154.88C0.110098 159.47 3.8301 163.18 8.4101 163.18H39.5601C39.5801 163.18 39.6001 163.18 39.6301 163.18C61.4101 163.18 79.1301 145.46 79.1301 123.68V92.46C79.1301 90.71 78.5801 89.1 77.6601 87.76C77.3401 87.3 76.9701 86.88 76.5701 86.49C75.0801 85.06 73.0601 84.16 70.8301 84.16C69.1101 84.16 67.5201 84.68 66.1901 85.58C64.8201 86.5 63.7601 87.82 63.1401 89.37C62.7501 90.33 62.5301 91.37 62.5301 92.46V123.68C62.5301 125.26 62.3701 126.79 62.0701 128.28C59.9301 138.7 50.6901 146.57 39.6401 146.57C27.0101 146.57 16.7501 136.32 16.7301 123.71V123.67C16.7001 111.88 25.6501 102.15 37.1101 100.9Z" fill="#F7942D"/>
<path d="M31.8501 130.05C32.0501 130.3 32.2701 130.54 32.5001 130.76C34.3201 132.58 36.8301 133.7 39.6101 133.7C45.1601 133.7 49.6601 129.2 49.6601 123.65C49.6601 120.53 48.2401 117.74 46.0001 115.89C44.2601 114.46 42.0401 113.6 39.6101 113.6C34.0601 113.6 29.5601 118.1 29.5601 123.65C29.5601 126.09 30.4201 128.32 31.8501 130.05Z" fill="#0069B4"/>
</svg>
